<?xml version="1.0" encoding="utf-8"?>
<!-- Generator: Adobe Illustrator 22.1.0, SVG Export Plug-In . SVG Version: 6.00 Build 0)  -->
<svg version="1.1" id="Capa_1" xmlns="http://www.w3.org/2000/svg" xmlns:xlink="http://www.w3.org/1999/xlink" x="0px" y="0px"
	 viewBox="0 0 60 60" style="enable-background:new 0 0 60 60;" xml:space="preserve">
<style type="text/css">
	.st0{fill:#F0F0F1;stroke:#A3A3A8;stroke-width:0.25;stroke-miterlimit:10;}
	.st1{fill:none;stroke:#CF4836;stroke-width:6;stroke-miterlimit:10;}
	.st2{fill:#FFFFFF;stroke:#A3A3A8;stroke-width:0.25;stroke-miterlimit:10;}
	.st3{fill:#49494F;}
</style>
<g>
	<circle class="st0" cx="30" cy="30" r="27.5"/>
	<circle class="st1" cx="30" cy="30" r="24.2"/>
	<circle class="st2" cx="30.1" cy="30" r="20.8"/>
	<g>
		<g>
			<path class="st3" d="M27.7,27.8h2c1,0,1.7-0.2,2.2-0.7s0.7-1.1,0.7-1.9s-0.2-1.4-0.7-1.8s-1.1-0.6-1.9-0.6
				c-0.7,0-1.3,0.2-1.8,0.6s-0.7,0.9-0.7,1.6h-3.8c0-1,0.3-1.9,0.8-2.7c0.5-0.8,1.3-1.4,2.3-1.9c1-0.4,2-0.7,3.2-0.7
				c2,0,3.6,0.5,4.8,1.5s1.7,2.3,1.7,4c0,0.9-0.3,1.7-0.8,2.4c-0.5,0.7-1.2,1.3-2.1,1.7c1.1,0.4,1.9,1,2.4,1.7
				c0.5,0.8,0.8,1.7,0.8,2.7c0,1.7-0.6,3.1-1.9,4.1c-1.2,1-2.9,1.5-4.9,1.5c-1.9,0-3.5-0.5-4.7-1.5c-1.2-1-1.8-2.4-1.8-4h3.8
				c0,0.7,0.3,1.3,0.8,1.8s1.2,0.7,2,0.7c0.9,0,1.6-0.2,2.1-0.7c0.5-0.5,0.8-1.1,0.8-1.9c0-1.9-1.1-2.9-3.2-2.9h-2L27.7,27.8z"/>
		</g>
	</g>
</g>
</svg>
