<?xml version="1.0" encoding="utf-8"?>
<!-- Generator: Adobe Illustrator 22.1.0, SVG Export Plug-In . SVG Version: 6.00 Build 0)  -->
<svg version="1.1" id="Capa_1" xmlns="http://www.w3.org/2000/svg" xmlns:xlink="http://www.w3.org/1999/xlink" x="0px" y="0px"
	 viewBox="0 0 60 60" style="enable-background:new 0 0 60 60;" xml:space="preserve">
<style type="text/css">
	.st0{fill:#F0F0F1;stroke:#A3A3A8;stroke-width:0.25;stroke-miterlimit:10;}
	.st1{fill:none;stroke:#E4871B;stroke-width:6;stroke-miterlimit:10;}
	.st2{fill:#FFFFFF;stroke:#A3A3A8;stroke-width:0.25;stroke-miterlimit:10;}
	.st3{fill:#49494F;}
</style>
<g>
	<circle class="st0" cx="30" cy="30" r="27.5"/>
	<path class="st1" d="M30.4,5.8c1.1,0,2.1,0.2,3.3,0.4c13.1,2.1,22.2,14.4,20.1,27.5S39.4,55.9,26.3,53.8
		c-7.9-1.2-14.2-6.1-17.7-12.6"/>
	<circle class="st2" cx="30" cy="30" r="20.8"/>
	<g>
		<g>
			<path class="st3" d="M36.8,38.4l-13.1,0.2V36l6.1-6.7c0.9-0.9,1.4-1.8,1.9-2.5c0.4-0.7,0.5-1.4,0.5-1.9c0-0.9-0.2-1.6-0.7-1.9
				c-0.5-0.5-1.1-0.7-1.9-0.7c-0.9,0-1.6,0.4-2.1,0.9s-0.7,1.4-0.7,2.3h-3.9c0-1.2,0.2-2.3,0.7-3.2c0.5-1.1,1.4-1.8,2.3-2.3
				c1.1-0.5,2.1-0.9,3.5-0.9c1.9,0,3.5,0.4,4.6,1.4c1.1,0.9,1.8,2.3,1.8,4c0,0.9-0.2,1.9-0.7,3s-1.2,2.1-2.5,3.5l-4.2,4.4l8.2-0.2
				L36.8,38.4z"/>
		</g>
	</g>
</g>
</svg>
